<svg xmlns="http://www.w3.org/2000/svg" version="1.1" xmlns:xlink="http://www.w3.org/1999/xlink" xmlns:svgjs="http://svgjs.dev/svgjs" width="2000" height="2250" viewBox="0 0 2000 2250"><g transform="matrix(1,0,0,1,0.000015624999718966137,0)"><svg viewBox="0 0 320 360" data-background-color="#ffffff" preserveAspectRatio="xMidYMid meet" height="2250" width="2000" xmlns="http://www.w3.org/2000/svg" xmlns:xlink="http://www.w3.org/1999/xlink"><g id="tight-bounds" transform="matrix(1,0,0,1,0.0000025000000505315256,0)"><svg viewBox="0 0 320 360" height="360" width="320"><g><svg></svg></g><g><svg viewBox="0 0 320 360" height="360" width="320"><g><path transform="translate(-19.44751,3.1739) scale(3.53591,3.53591)" d="M67.6 10.7c0.2 0 1.8 0.8 2.7 1.1-0.3 0.1-1-0.2-1.8-0.5 0.2 0 0.6 0.1 1 0.3-0.2-0.2-1.7-0.7-1.9-0.9M52.7 7.6c0.3-0.1 3.8 0.4 5.4 0.5 0.1-0.1-0.2-0.1-0.6-0.2 0.5-0.1 1.5 0.2 2.2 0.3-2.1 0.1-4.4-0.5-6.4-0.3-0.7 0-0.2-0.2-0.6-0.3M49.8 7.6c1.8 0 3.2 0 0.6 0.2-0.3-0.1-0.7-0.1-0.6-0.2M78.1 15.9c0.2 0 1 0.9 1.4 1.2-0.1 0.1-0.9-0.7-1.3-1 0.1 0.1 0 0-0.1-0.2M76.1 14.6c-0.8-0.7-1.1-0.7-1.2-1.1 0.7 0.4 1.2 0.8 1.2 1.1M63.2 8.3c0.1-0.1 0.3 0.1 0.8 0.2-0.6-0.1-0.5 0-0.3 0.2-0.7-0.1-0.9-0.2-0.7-0.4 0.4 0.2 0.5 0.1 0.2 0M34.8 9.5c0-0.1 0.4-0.3 0.7-0.4-0.3 0.2-0.2 0.3 0.3 0.1 0 0.1-0.6 0.3-1 0.5 0.2-0.1 0.4-0.4 0-0.2M65.2 7.3c-0.3 0.1-1.4-0.5-2.5-0.7-0.6-0.2 2.4 0.5 2.5 0.7M6.2 56.7c0.6 2.5 0.2 2.4 0 0M6.3 41.7c0.1-0.4 0.2-1.5 0.3-1.4-0.3 2.4-0.8 3.5-0.9 5.3 0.3-1.6-0.1 0.9-0.2 1.5 0.1 0.8 0.1-0.5 0.3-0.3 0.2 0.3-0.4 4.5-0.2 2.2-0.2 2.1 0 4.4 0.4 5-0.5 3.2 2 10.4 2.5 11.9 0.1 0.1 0-0.5 0.2-0.1 0.2 1.3 1.1 2.2 1.4 3.6 0.3 0.4 1.5 2.6 1.7 3.1 0.4 0.8 0.6 0.7 1 1.5 1.2 2.3 3.1 4.5 4.9 6.6 5.8 6.8 14.7 12.4 24.6 14.4 9.9 2.1 20.3 0.6 28.4-3.3 0.5-0.3 0.4-0.4 1-0.6 2.8-0.9 6.2-3.8 8.1-4.9 0.9-1 3.3-2.7 3.6-3.7 1.7-1.4 3.4-3.7 4.3-5.2 0.5-0.8 0.9-0.8 1.1-1.3-0.1 0 1.6-2.1 2.1-3.3-0.2 0-0.5 0.6-0.5 0 3.6-6.9 5.6-16.2 4.5-22.6 0.2 7.9-1.8 16.7-5.6 22.3-1.7 3.6-5.2 7.5-8.4 10.3-0.5 0.5-1 1.1-1.6 1.5-1.9 1.6-4 2.9-6.2 4.1-5.2 2.9-11 5.4-17.8 5.5 11.7-1 22.2-6.9 28-14.1-4.4 4.3-6.3 6-11.2 8.5-0.4 0.7-3.7 2.1-5.9 2.7 1.3-0.6 4-1.6 4.9-2.4-7.3 3.5-15.4 5.5-23 4.4 2.9 0 7 0.1 10.9-0.6 0.6-0.2 0.9-0.4 1.6-0.5 7.6-1.7 14.9-5.4 20.1-10.6-3 2.7-7.5 5.9-10.4 6.9 2.7-1.5 7.6-4.4 9.2-6.6-3.2 3.2-9.2 6.4-13 7.8-0.6 0.1 0.4-0.4-0.6 0-1.2 0.3-0.7 0.3-1 0.5-4.6 1.3-9.9 2.4-14.3 2-0.8-0.1-1.1-0.3-1.8-0.3-0.8-0.1-1.5-0.1-2.4-0.1-3.5-0.4-7.3-1.8-10.1-3-1.5-0.7-3-1.2-4.5-2.1-1.2-0.7-2.2-1.5-3.2-2.3-3.8-2.8-7-5.6-10-9.6-5.4-7.5-8.2-16.9-7.8-26.2 0.4-9.3 4.1-18.4 10-25.1-0.3 0.3 0.4-0.7 1-1.3 0 0.2-0.1 0.5 0.6-0.2 0.6-0.7-0.2-0.2 0.1-0.6 6.2-6.8 17-12.3 28.1-12.5 0.4-0.3 1.1-0.7 1.9-0.5 0 0.1-0.5 0.1-0.5 0.1 1.1-0.1 2.1-0.1 2.6 0.1 0.1-0.1-0.4-0.2 0-0.2 0.7 0.2 0.9 0 1.3 0.2-0.3 0-0.6 0-0.8 0.1 2.5 0 4.1 0.6 6.6 0.8-1.3-0.3-1.6-0.3-2.6-0.6 1.1 0.2 1.6 0.4 2.1 0.3-0.2 0-0.1-0.3 0.1-0.2 2 0.5 2.2 0.7 4.3 1.4 0.2-0.2-0.9-0.3-1.2-0.6 2 0.7 3.8 1.2 5 2-0.4-0.3-1.6-0.7-2.5-1.1-0.1 0.1 0.3 0.2 0.4 0.4-1-0.5-2.4-1-3.8-1.2 1.2 0.3 2 0.7 2.5 0.9-1.1-0.2-2.5-0.9-4.1-1.2 2.6 0.8 7.5 2.6 10.5 4.2-1.1-0.7-2.4-1.2-3.1-1.6 0.6 0.1 1.3 0.5 1.3 0.3 0.7 0.3 1.6 1 2.1 1.1-0.9-0.6-2.7-1.5-3.3-1.8 7.5 3.4 14.2 9.1 18.5 16.4 0.4 0.7 1 2.3 1.5 2.5-0.1-0.5-0.5-0.8-0.9-1.6 0.2 0 0.2-0.3 0-0.6-0.4-0.5 0 0.4-0.4-0.1-1.8-3.3-4-6.2-7.4-9.4 1.9 1.8 0.5 0.5 0.1-0.1 2.6 2.3 5.6 6.2 6.9 8.2-0.2-0.3-0.3-0.5-0.2-0.5 2.4 4.1 3.9 7.8 5.4 13.1 0.1 0.1 0-0.4 0.2-0.1 1 4.2 1.3 7.7 1.2 10.9 0.8-5.4-1-13.8-4.2-20.4-0.4-0.8-0.4-0.2-0.8-1.1 0-0.3-0.3-0.9-0.5-1.3-4-6.6-8.9-11.3-14.7-15 0.4 0.2 1.2 0.8 1.2 0.7-10.8-7.1-23.3-8.1-33.6-5.9-0.7 0.3-1 0.6-1.8 1 1.5-0.5 2.4-0.6 3.8-0.9 0.3-0.3-1.3 0.1-0.6-0.2 0.1 0.1 1.4-0.2 1.7-0.1 0 0.1-0.4 0.2-0.5 0.3 3.3-0.7 6.7-0.8 9.6-0.6-1.7 0.1-4.8-0.2-5.8 0.3 1-0.1 2.4-0.2 3.3-0.1-1.2 0-3.4 0.1-4.4 0.2-0.1-0.1 1.6-0.3 0.5-0.3-0.5 0.1-1.3 0.1-1.6 0.4-8.6 0.8-17 5.3-22.9 10.6-1.2 1-2.6 2.1-3.5 3.2-2.2 2.5-3.6 5-5.2 7.2 1-2.1 3.2-5.3 5.8-8 2.6-2.7 5.4-5 6.9-6.2 0 0.4 2.4-1.5 3.3-2.1-0.6 0.5 0.4-0.2 0.6-0.1 3.2-1.9 5.8-2.6 8.7-3.7-0.7 0.2-1.3 0.4-1.4 0.3 0.7-0.2 1.1-0.4 1-0.5-2.8 0.8-7.2 2.7-10.7 4.8 6.3-4.3 14.3-6.9 22.2-7 7.9-0.2 15.6 1.8 21.7 5 4.1 1.8 8 5.1 11.1 8.3 0.9 0.8 0.2-0.2 1.5 1.2-0.4-0.2-0.7-0.4-0.2 0.2 0.8 0.9-0.2-0.7 1.1 0.9-0.1 0-0.5-0.5-0.5-0.3 3.5 3.1 6.2 8.7 7.8 12.4-0.4-1.5-1.4-3.6-2.2-5.1 2.4 4.4 3.2 7 4.2 10.9 0.4 0.3-0.2-1.4 0.2-0.6 0.1 0.6 0.2 2.5 0.6 2.8-0.3-1.9-0.8-4.2-1.2-4.6 0.3 0.2-0.5-2.3-1-2.9-0.2-1.6-1.6-4.4-2.8-6.5-4.3-8.4-12-15.3-20.6-19.1 0-0.2-0.5-0.4-0.7-0.6-8.5-3.6-18.7-4.6-28.5-2.3-9.9 2.4-19.2 8.1-25.8 16.3 0.3-1 2.8-2.9 2.9-3.7-2.9 3.1-6 7.2-8.1 11.6-2.2 4.4-3.4 8.9-3.9 12.2" fill="#ee3e38" fill-rule="nonzero" stroke="none" stroke-width="1" stroke-linecap="butt" stroke-linejoin="miter" stroke-miterlimit="10" stroke-dasharray="" stroke-dashoffset="0" font-family="none" font-weight="none" font-size="none" text-anchor="none" style="mix-blend-mode: normal" data-fill-palette-color="tertiary"></path></g><g transform="matrix(1,0,0,1,48.000000000000014,112.275235167723)"><svg viewBox="0 0 223.99999999999997 135.449529664554" height="135.449529664554" width="223.99999999999997"><g><svg viewBox="0 0 299.16382951165133 180.89999999999998" height="135.449529664554" width="223.99999999999997"><g><rect width="16.232585760000003" height="180.89999999999998" x="145.2149481638045" y="0" fill="#ee3e38" opacity="1" stroke-width="0" stroke="transparent" fill-opacity="1" class="rect-i$-0" data-fill-palette-color="primary" rx="1%" id="i$-0" data-palette-color="#ee3e38"></rect></g><g transform="matrix(1,0,0,1,0,0.44999999999998863)"><svg viewBox="0 0 102.7212681638045 180" height="180" width="102.7212681638045"><g id="textblocktransform"><svg viewBox="0 0 102.7212681638045 180" height="180" width="102.7212681638045" id="textblock"><g><svg viewBox="0 0 102.7212681638045 180" height="180" width="102.7212681638045"><g transform="matrix(1,0,0,1,0,0)"><svg width="102.7212681638045" viewBox="-1.27 -35.84 21.09 36.96000000000001" height="180" data-palette-color="#ee3e38"><g class="wordmark-text-0" data-fill-palette-color="primary" id="text-0"><path d="M19.82-18.16L19.82-18.16 19.82-16.94Q19.78-15.14 19.63-13.09 19.48-11.04 19.14-9.03 18.8-7.03 18.12-5.2 17.43-3.37 16.26-1.95 15.09-0.54 13.38 0.29 11.67 1.12 9.23 1.12L9.23 1.12Q6.59 1.12 4.61 0 2.64-1.12 1.32-2.95 0-4.79-0.63-7.06-1.27-9.33-1.27-11.67L-1.27-11.67Q-1.27-12.7-1.05-13.96-0.83-15.23-0.29-16.33 0.24-17.43 1.1-18.19 1.95-18.95 3.27-18.95L3.27-18.95Q4.69-18.95 5.4-18.16 6.1-17.38 6.42-16.24 6.74-15.09 6.84-13.75 6.93-12.4 7.08-11.25 7.23-10.11 7.59-9.33 7.96-8.54 8.84-8.54L8.84-8.54Q9.86-8.54 10.45-9.42 11.04-10.3 11.3-11.5 11.57-12.7 11.65-13.92 11.72-15.14 11.72-15.82L11.72-15.82Q11.72-18.55 11.25-21.17 10.79-23.78 10.11-26.46L10.11-26.46Q9.77-27.83 9.38-29.25 8.98-30.66 8.98-32.08L8.98-32.08Q8.98-33.74 9.86-34.79 10.74-35.84 12.45-35.84L12.45-35.84Q13.72-35.84 14.45-35.33 15.19-34.81 15.92-33.84L15.92-33.84Q17.04-32.32 17.8-30.37 18.55-28.42 18.99-26.32 19.43-24.22 19.63-22.09 19.82-19.97 19.82-18.16Z" fill="#ee3e38" data-fill-palette-color="primary"></path></g></svg></g></svg></g></svg></g></svg></g><g transform="matrix(1,0,0,1,203.94121392380453,43.64998410212332)"><svg viewBox="0 0 95.22261558784678 93.60003179575334" height="93.60003179575334" width="95.22261558784678"><g><svg xmlns="http://www.w3.org/2000/svg" xmlns:xlink="http://www.w3.org/1999/xlink" version="1.1" x="0" y="0" viewBox="-345.9993836358223 257.9479943277313 99.75176572719312 98.0520056722687" enable-background="new -346 256 100 100" xml:space="preserve" height="93.60003179575334" width="95.22261558784678" class="icon-icon-0" data-fill-palette-color="accent" id="icon-0"><path d="M-246.455 327.152l-16.86-64.454c0 0-1.243-4.756-6.002-4.75l-72.96 0.08c0 0-4.759 0.004-3.515 4.761l15.835 60.538c7.148-15.684 15.203-33.301 15.795-34.599l0.423-0.924 21.84-0.021-1.048 2.253c-5.985 12.87-13.768 29.775-19.236 41.944l62.212-0.067C-249.97 331.912-245.211 331.906-246.455 327.152z" fill="#ee3e38" data-fill-palette-color="accent"></path><path d="M-296.864 290.954l-14.839 0.015c-9.094 19.892-25.758 56.396-26.425 58.074-1.594 4.007 0.346 6.235 1.171 6.957h56.176l-1.875-4.804h-35.137c-0.044 0.002-0.107 0.005-0.184 0.005-1.988 0-3.998-1.204-4.006-3.894-0.002-0.629-0.004-1.579 13.149-30.369C-303.924 306.194-298.966 295.487-296.864 290.954z" fill="#ee3e38" data-fill-palette-color="accent"></path></svg></g></svg></g></svg></g></svg></g></svg></g><defs></defs></svg><rect width="320" height="360" fill="none" stroke="none" visibility="hidden"></rect></g></svg></g></svg>